<svg width="15px" height="15px" viewBox="0 0 15 15" fill="none" xmlns="http://www.w3.org/2000/svg">
  <path fill-rule="evenodd" clip-rule="evenodd"
    d="M0.733294 14.2589C0.578914 14.1045 0.492188 13.895 0.492188 13.6767C0.492188 13.4583 0.578914 13.2489 0.733294 13.0945L11.6808 2.14698H4.61029C4.39189 2.14698 4.18243 2.06022 4.028 1.90579C3.87356 1.75135 3.7868 1.54189 3.7868 1.32349C3.7868 1.10509 3.87356 0.89563 4.028 0.741195C4.18243 0.586761 4.39189 0.5 4.61029 0.5H13.6687C13.8871 0.5 14.0966 0.586761 14.251 0.741195C14.4054 0.89563 14.4922 1.10509 14.4922 1.32349V10.3819C14.4922 10.6003 14.4054 10.8098 14.251 10.9642C14.0966 11.1186 13.8871 11.2054 13.6687 11.2054C13.4503 11.2054 13.2408 11.1186 13.0864 10.9642C12.932 10.8098 12.8452 10.6003 12.8452 10.3819V3.3114L1.89936 14.2589C1.82286 14.3356 1.73199 14.3964 1.63194 14.4379C1.5319 14.4795 1.42464 14.5008 1.31633 14.5008C1.20801 14.5008 1.10076 14.4795 1.00071 14.4379C0.900663 14.3964 0.80979 14.3356 0.733294 14.2589Z"
    fill="#14161B" />
</svg>
  