<svg width="21" height="20" viewBox="0 0 21 20" fill="none" xmlns="http://www.w3.org/2000/svg">
  <path fill-rule="evenodd" clip-rule="evenodd"
    d="M10.5 20C11.8132 20 13.1136 19.7413 14.3268 19.2388C15.5401 18.7362 16.6425 17.9997 17.5711 17.0711C18.4997 16.1425 19.2362 15.0401 19.7388 13.8268C20.2413 12.6136 20.5 11.3132 20.5 10C20.5 8.68678 20.2413 7.38642 19.7388 6.17317C19.2362 4.95991 18.4997 3.85752 17.5711 2.92893C16.6425 2.00035 15.5401 1.26375 14.3268 0.761205C13.1136 0.258658 11.8132 -1.95685e-08 10.5 0C7.84784 3.95203e-08 5.3043 1.05357 3.42893 2.92893C1.55357 4.8043 0.5 7.34784 0.5 10C0.5 12.6522 1.55357 15.1957 3.42893 17.0711C5.3043 18.9464 7.84784 20 10.5 20ZM10.2422 14.0444L15.7978 7.37778L14.0911 5.95556L9.31333 11.6878L6.84111 9.21445L5.27 10.7856L8.60333 14.1189L9.46333 14.9789L10.2422 14.0444Z"
    fill="#4F1AD6" />
</svg>