<svg width="19" height="18" viewBox="0 0 19 18" fill="none" xmlns="http://www.w3.org/2000/svg">
  <path
    d="M9.05469 18C7.80469 18 6.63385 17.7625 5.54219 17.2875C4.45052 16.8125 3.50052 16.1708 2.69219 15.3625C1.88385 14.5542 1.24219 13.6042 0.767188 12.5125C0.292187 11.4208 0.0546875 10.25 0.0546875 9C0.0546875 7.75 0.292187 6.57917 0.767188 5.4875C1.24219 4.39583 1.88385 3.44583 2.69219 2.6375C3.50052 1.82917 4.45052 1.1875 5.54219 0.7125C6.63385 0.2375 7.80469 0 9.05469 0C10.4214 0 11.7172 0.291667 12.9422 0.875C14.1672 1.45833 15.2047 2.28333 16.0547 3.35V1H18.0547V7H12.0547V5H14.8047C14.1214 4.06667 13.2797 3.33333 12.2797 2.8C11.2797 2.26667 10.2047 2 9.05469 2C7.10469 2 5.45052 2.67917 4.09219 4.0375C2.73385 5.39583 2.05469 7.05 2.05469 9C2.05469 10.95 2.73385 12.6042 4.09219 13.9625C5.45052 15.3208 7.10469 16 9.05469 16C10.8047 16 12.3339 15.4333 13.6422 14.3C14.9505 13.1667 15.7214 11.7333 15.9547 10H18.0047C17.7547 12.2833 16.7755 14.1875 15.0672 15.7125C13.3589 17.2375 11.3547 18 9.05469 18ZM11.8547 13.2L8.05469 9.4V4H10.0547V8.6L13.2547 11.8L11.8547 13.2Z"
    fill="#4F1AD6" />
</svg>