<svg width="25" height="25" viewBox="0 0 25 25" fill="none" xmlns="http://www.w3.org/2000/svg">
<g clip-path="url(#clip0_1299_11302)">
<rect width="25" height="25" fill="url(#paint0_linear_1299_11302)" fill-opacity="0.02"/>
<path fill-rule="evenodd" clip-rule="evenodd" d="M0.5 12.567C0.5 18.533 4.833 23.494 10.5 24.5V15.833H7.5V12.5H10.5V9.833C10.5 6.833 12.433 5.167 15.167 5.167C16.033 5.167 16.967 5.3 17.833 5.433V8.5H16.3C14.833 8.5 14.5 9.233 14.5 10.167V12.5H17.7L17.167 15.833H14.5V24.5C20.167 23.494 24.5 18.534 24.5 12.567C24.5 5.93 19.1 0.5 12.5 0.5C5.9 0.5 0.5 5.93 0.5 12.567Z" fill="#F9FBFF"/>
</g>
<defs>
<linearGradient id="paint0_linear_1299_11302" x1="12.5" y1="0" x2="12.5" y2="25" gradientUnits="userSpaceOnUse">
<stop stop-color="white"/>
<stop offset="1" stop-color="white" stop-opacity="0"/>
</linearGradient>
<clipPath id="clip0_1299_11302">
<rect width="25" height="25" fill="white"/>
</clipPath>
</defs>
</svg>
