<svg width="19" height="20" viewBox="0 0 19 20" fill="none" xmlns="http://www.w3.org/2000/svg">
<path d="M1.5 2.85V17.15C1.21667 16.8667 0.95 16.5667 0.7 16.25C0.45 15.9333 0.216667 15.6083 0 15.275V4.725C0.216667 4.39167 0.45 4.06667 0.7 3.75C0.95 3.43333 1.21667 3.13333 1.5 2.85ZM5.5 0.45V19.55C5.15 19.4333 4.80833 19.3042 4.475 19.1625C4.14167 19.0208 3.81667 18.8583 3.5 18.675V1.325C3.81667 1.14167 4.14167 0.979167 4.475 0.8375C4.80833 0.695833 5.15 0.566667 5.5 0.45ZM12.5 19.175V0.825C14.2667 1.60833 15.7083 2.81667 16.825 4.45C17.9417 6.08333 18.5 7.93333 18.5 10C18.5 12.0667 17.9417 13.9167 16.825 15.55C15.7083 17.1833 14.2667 18.3917 12.5 19.175ZM8.5 20C8.33333 20 8.16667 19.9958 8 19.9875C7.83333 19.9792 7.66667 19.9667 7.5 19.95V0.05C7.66667 0.0333333 7.83333 0.0208333 8 0.0125C8.16667 0.00416667 8.33333 0 8.5 0C8.83333 0 9.16667 0.0166667 9.5 0.05C9.83333 0.0833333 10.1667 0.133333 10.5 0.2V19.8C10.1667 19.8667 9.83333 19.9167 9.5 19.95C9.16667 19.9833 8.83333 20 8.5 20Z" fill="#4F1AD6"/>
</svg>
