<svg width="16" height="16" viewBox="0 0 16 16" fill="none" xmlns="http://www.w3.org/2000/svg">
  <path
    d="M8.72727 0L8.728 2.22691C10.0096 2.38894 11.2009 2.97268 12.1143 3.88619C13.0277 4.79971 13.6112 5.99109 13.7731 7.27273H16V8.72727L13.7731 8.728C13.6111 10.0095 13.0275 11.2007 12.1141 12.1141C11.2007 13.0275 10.0095 13.6111 8.728 13.7731L8.72727 16H7.27273V13.7731C5.99109 13.6112 4.79971 13.0277 3.88619 12.1143C2.97268 11.2009 2.38894 10.0096 2.22691 8.728L0 8.72727V7.27273H2.22691C2.38879 5.99099 2.97246 4.79952 3.88599 3.88599C4.79952 2.97246 5.99099 2.38879 7.27273 2.22691V0H8.72727ZM8 6.54545C7.61423 6.54545 7.24426 6.6987 6.97148 6.97148C6.6987 7.24426 6.54545 7.61423 6.54545 8C6.54545 8.38577 6.6987 8.75574 6.97148 9.02852C7.24426 9.3013 7.61423 9.45455 8 9.45455C8.38577 9.45455 8.75574 9.3013 9.02852 9.02852C9.3013 8.75574 9.45455 8.38577 9.45455 8C9.45455 7.61423 9.3013 7.24426 9.02852 6.97148C8.75574 6.6987 8.38577 6.54545 8 6.54545Z"
    fill="red" />
</svg>