<svg width="156" height="155" viewBox="0 0 156 155" fill="none" xmlns="http://www.w3.org/2000/svg">
  <path
    d="M61.6771 40.8607L46.5613 29.8774C45.7315 29.2766 45.1134 28.4282 44.796 27.4542C44.4786 26.4801 44.4781 25.4305 44.7946 24.4561C45.1112 23.4818 45.7284 22.6329 46.5577 22.0313C47.387 21.4298 48.3856 21.1066 49.41 21.1082H68.0965L73.8763 3.34688C74.1926 2.37402 74.8088 1.52625 75.6364 0.925028C76.4641 0.323808 77.4608 0 78.4838 0C79.5067 0 80.5035 0.323808 81.3311 0.925028C82.1588 1.52625 82.7749 2.37402 83.0912 3.34688L88.8662 21.1179H107.548C108.571 21.1177 109.568 21.4414 110.396 22.0427C111.224 22.644 111.84 23.492 112.156 24.4651C112.473 25.4382 112.473 26.4864 112.157 27.4596C111.84 28.4327 111.224 29.2808 110.397 29.8822L95.2807 40.8656L101.051 58.6366C101.369 59.61 101.37 60.6592 101.055 61.6335C100.739 62.6077 100.123 63.4569 99.2946 64.0591C98.4663 64.6614 97.4685 64.9857 96.4445 64.9854C95.4204 64.9852 94.4228 64.6605 93.5947 64.058L78.4789 53.0698L63.3631 64.0531C61.6771 65.274 59.3419 65.2644 57.6656 64.0531C56.8372 63.4513 56.2207 62.6024 55.9047 61.6284C55.5888 60.6544 55.5895 59.6053 55.9069 58.6317L61.6771 40.8607Z"
    fill="white" />
  <path
    d="M112.39 40.3781H120.156C121.179 40.3792 122.176 40.0557 123.003 39.454C123.83 38.8524 124.445 38.0037 124.759 37.0303L127.167 29.6467C127.483 28.6738 128.099 27.8261 128.927 27.2248C129.754 26.6236 130.751 26.2998 131.774 26.2998C132.797 26.2998 133.794 26.6236 134.621 27.2248C135.449 27.8261 136.065 28.6738 136.382 29.6467L138.78 37.0303C139.095 38.0036 139.711 38.8518 140.539 39.4526C141.367 40.0534 142.364 40.3757 143.387 40.3732H151.149C152.173 40.3716 153.172 40.6948 154.001 41.2964C154.83 41.8979 155.447 42.7468 155.764 43.7212C156.08 44.6955 156.08 45.7452 155.763 46.7192C155.445 47.6933 154.827 48.5417 153.997 49.1425L147.714 53.7015C146.885 54.3033 146.269 55.1522 145.953 56.1262C145.637 57.1002 145.638 58.1493 145.955 59.1229L148.353 66.5065C149.758 70.8426 144.598 74.6216 140.892 71.923L134.618 67.3592C133.791 66.7545 132.794 66.4285 131.769 66.4285C130.745 66.4285 129.747 66.7545 128.921 67.3592L122.642 71.923C119.008 74.5683 113.747 70.9444 115.185 66.5065L117.584 59.1277C117.903 58.1536 117.905 57.1032 117.589 56.128C117.273 55.1528 116.655 54.3031 115.825 53.7015L109.541 49.1425C108.711 48.5417 108.093 47.6933 107.776 46.7192C107.459 45.7452 107.458 44.6955 107.775 43.7212C108.091 42.7468 108.708 41.8979 109.538 41.2964C110.367 40.6948 111.366 40.3716 112.39 40.3732V40.3781ZM39.369 59.1229L41.7672 66.5065C43.1722 70.8426 37.9979 74.6119 34.3061 71.923L28.0321 67.3592C27.2054 66.7545 26.2077 66.4285 25.1834 66.4285C24.1591 66.4285 23.1614 66.7545 22.3346 67.3592L16.0557 71.923C12.3398 74.6362 7.18972 70.862 8.59956 66.5065L10.9977 59.1277C11.317 58.1536 11.3188 57.1032 11.0027 56.128C10.6866 55.1528 10.0691 54.3031 9.23908 53.7015L2.95536 49.1425C2.12554 48.5417 1.50752 47.6933 1.1901 46.7192C0.872675 45.7452 0.872191 44.6955 1.18872 43.7212C1.50525 42.7468 2.12249 41.8979 2.95176 41.2964C3.78103 40.6948 4.77964 40.3716 5.8041 40.3732H13.5703C14.5925 40.3747 15.5889 40.0519 16.4159 39.4511C17.243 38.8504 17.8582 38.0028 18.1729 37.0303L20.5759 29.6467C20.8922 28.6738 21.5084 27.8261 22.336 27.2248C23.1637 26.6236 24.1604 26.2998 25.1834 26.2998C26.2063 26.2998 27.2031 26.6236 28.0307 27.2248C28.8584 27.8261 29.4745 28.6738 29.7908 29.6467L32.189 37.0303C32.504 38.0036 33.1199 38.8518 33.9479 39.4526C34.776 40.0534 35.7734 40.3757 36.7964 40.3732H44.5626C45.5871 40.3716 46.5857 40.6948 47.415 41.2964C48.2442 41.8979 48.8615 42.7468 49.178 43.7212C49.4945 44.6955 49.4941 45.7452 49.1766 46.7192C48.8592 47.6933 48.2412 48.5417 47.4114 49.1425L41.1277 53.7015C40.2992 54.3033 39.6828 55.1522 39.3668 56.1262C39.0508 57.1002 39.0516 58.1493 39.369 59.1229ZM71.2091 76.7921H85.7435C93.7569 76.7921 100.278 83.3133 100.278 91.3268V139.775C100.278 147.789 93.7569 154.31 85.7435 154.31H71.2091C63.1958 154.31 56.6747 147.789 56.6747 139.775V91.3268C56.6747 83.3133 63.1958 76.7921 71.2091 76.7921ZM15.4937 96.1716H30.0282C38.0415 96.1716 44.5626 102.693 44.5626 110.706V139.775C44.5626 147.789 38.0415 154.31 30.0282 154.31H15.4937C7.48041 154.31 0.959289 147.789 0.959289 139.775V110.706C0.959289 102.693 7.48041 96.1716 15.4937 96.1716ZM126.924 96.1716H141.459C149.472 96.1716 155.993 102.693 155.993 110.706V139.775C155.993 147.789 149.472 154.31 141.459 154.31H126.924C118.911 154.31 112.39 147.789 112.39 139.775V110.706C112.39 102.693 118.911 96.1716 126.924 96.1716Z"
    fill="white" />
</svg>