<svg width="22" height="20" viewBox="0 0 22 20" fill="none" xmlns="http://www.w3.org/2000/svg">
  <path
    d="M18.6969 20L12.6221 13.9251L14.9521 11.595L21.027 17.6699L18.6969 20ZM3.38488 20L1.05479 17.6699L8.71082 10.0139L6.82455 8.1276L6.04785 8.9043L4.63315 7.4896V9.76422L3.85645 10.5409L0.5 7.18447L1.2767 6.40777H3.55132L2.16436 5.0208L6.10333 1.08183C6.47319 0.711974 6.87078 0.443828 7.29612 0.277393C7.72145 0.110957 8.15603 0.0277393 8.59986 0.0277393C9.04369 0.0277393 9.47827 0.110957 9.90361 0.277393C10.3289 0.443828 10.7265 0.711974 11.0964 1.08183L8.54438 3.63384L9.93134 5.0208L9.15465 5.7975L11.0409 7.68377L13.5374 5.18724C13.4635 4.98382 13.4034 4.77115 13.3571 4.54924C13.3109 4.32732 13.2878 4.10541 13.2878 3.8835C13.2878 2.79242 13.6623 1.8724 14.4112 1.12344C15.1602 0.37448 16.0802 0 17.1713 0C17.4487 0 17.7122 0.0277393 17.9619 0.0832178C18.2115 0.138696 18.4658 0.221914 18.7247 0.332871L15.9785 3.07906L17.9757 5.07628L20.7219 2.3301C20.8514 2.589 20.9392 2.84327 20.9854 3.09293C21.0317 3.34258 21.0548 3.6061 21.0548 3.8835C21.0548 4.97457 20.6803 5.89459 19.9313 6.64355C19.1824 7.39251 18.2624 7.76699 17.1713 7.76699C16.9494 7.76699 16.7275 7.7485 16.5055 7.71151C16.2836 7.67453 16.071 7.6098 15.8675 7.51734L3.38488 20Z"
    fill="#4F1AD6" />
</svg>