<svg width="25" height="25" viewBox="0 0 25 25" fill="none" xmlns="http://www.w3.org/2000/svg">
<rect width="25" height="25" fill="url(#paint0_linear_1299_11300)" fill-opacity="0.02"/>
<path fill-rule="evenodd" clip-rule="evenodd" d="M1.5 3.338C1.5 2.85053 1.69365 2.38303 2.03834 2.03834C2.38303 1.69365 2.85053 1.5 3.338 1.5H21.66C21.9016 1.49961 22.1409 1.54687 22.3641 1.63907C22.5874 1.73127 22.7903 1.86661 22.9612 2.03734C23.1322 2.20807 23.2677 2.41083 23.3602 2.63401C23.4526 2.8572 23.5001 3.09643 23.5 3.338V21.66C23.5003 21.9016 23.4529 22.1409 23.3606 22.3642C23.2683 22.5875 23.1328 22.7904 22.962 22.9613C22.7912 23.1322 22.5884 23.2678 22.3651 23.3602C22.1419 23.4526 21.9026 23.5001 21.661 23.5H3.338C3.09655 23.5 2.85746 23.4524 2.6344 23.36C2.41134 23.2676 2.20867 23.1321 2.03798 22.9613C1.8673 22.7905 1.73193 22.5878 1.63962 22.3647C1.54731 22.1416 1.49987 21.9025 1.5 21.661V3.338ZM10.208 9.888H13.187V11.384C13.617 10.524 14.717 9.75 16.37 9.75C19.539 9.75 20.29 11.463 20.29 14.606V20.428H17.083V15.322C17.083 13.532 16.653 12.522 15.561 12.522C14.046 12.522 13.416 13.611 13.416 15.322V20.428H10.208V9.888ZM4.708 20.291H7.916V9.75H4.708V20.29V20.291ZM8.375 6.312C8.38105 6.58667 8.33217 6.85979 8.23124 7.11532C8.13031 7.37084 7.97935 7.60364 7.78723 7.80003C7.59511 7.99643 7.3657 8.15248 7.11246 8.25901C6.85921 8.36554 6.58724 8.42042 6.3125 8.42042C6.03776 8.42042 5.76579 8.36554 5.51255 8.25901C5.2593 8.15248 5.02989 7.99643 4.83777 7.80003C4.64565 7.60364 4.49469 7.37084 4.39376 7.11532C4.29283 6.85979 4.24395 6.58667 4.25 6.312C4.26187 5.77286 4.48439 5.25979 4.86989 4.88269C5.25539 4.50558 5.77322 4.29442 6.3125 4.29442C6.85178 4.29442 7.36961 4.50558 7.75512 4.88269C8.14062 5.25979 8.36313 5.77286 8.375 6.312V6.312Z" fill="#F9FBFF"/>
<defs>
<linearGradient id="paint0_linear_1299_11300" x1="12.5" y1="0" x2="12.5" y2="25" gradientUnits="userSpaceOnUse">
<stop stop-color="white"/>
<stop offset="1" stop-color="white" stop-opacity="0"/>
</linearGradient>
</defs>
</svg>
