<svg width="16" height="18" viewBox="0 0 16 18" fill="none" xmlns="http://www.w3.org/2000/svg">
<path d="M14.7075 1.6626L8.25102 0.0170054C8.17967 0.00401579 8.10655 0.00401579 8.0352 0.0170054C7.97559 0.00800736 7.91497 0.00800736 7.85535 0.0170054L1.36288 1.6626C0.951223 1.76537 0.589152 2.01037 0.340674 2.35429C0.0921954 2.69821 -0.0266888 3.1189 0.00503709 3.54201L0.382716 8.49679C0.533976 10.4623 1.22076 12.3488 2.3685 13.9515C3.51624 15.5542 5.08109 16.8119 6.89317 17.5881L7.6845 17.9298C7.78423 17.9713 7.89119 17.9927 7.99923 17.9927C8.10727 17.9927 8.21424 17.9713 8.31396 17.9298L9.10529 17.5881C10.9174 16.8119 12.4822 15.5542 13.63 13.9515C14.7777 12.3488 15.4645 10.4623 15.6158 8.49679L15.9934 3.54201C16.0289 3.12847 15.9202 2.7154 15.6858 2.37286C15.4514 2.03032 15.1058 1.77938 14.7075 1.6626ZM11.3714 6.9501L7.77442 10.547C7.69083 10.6313 7.59137 10.6982 7.48179 10.7439C7.37221 10.7895 7.25468 10.813 7.13597 10.813C7.01726 10.813 6.89972 10.7895 6.79014 10.7439C6.68056 10.6982 6.58111 10.6313 6.49751 10.547L4.69904 8.74857C4.52971 8.57924 4.43458 8.34958 4.43458 8.11012C4.43458 7.87065 4.52971 7.64099 4.69904 7.47166C4.86837 7.30233 5.09803 7.2072 5.3375 7.2072C5.57697 7.2072 5.80663 7.30233 5.97596 7.47166L7.13597 8.64067L10.0944 5.67319C10.2638 5.50386 10.4934 5.40873 10.7329 5.40873C10.9724 5.40873 11.202 5.50386 11.3714 5.67319C11.5407 5.84252 11.6358 6.07218 11.6358 6.31165C11.6358 6.55112 11.5407 6.78077 11.3714 6.9501Z" fill="white"/>
</svg>
