<svg width="166" height="221" viewBox="0 0 166 221" fill="none" xmlns="http://www.w3.org/2000/svg">
  <path
    d="M131.219 69.0625C150.259 69.0625 165.75 53.5718 165.75 34.5312C165.75 15.4907 150.259 0 131.219 0C112.178 0 96.6875 15.4907 96.6875 34.5312C96.6875 53.5718 112.178 69.0625 131.219 69.0625ZM131.219 37.9844C125.507 37.9844 120.859 33.3365 120.859 27.625C120.859 23.129 123.757 19.3306 127.766 17.901V17.2656C127.766 16.3498 128.129 15.4715 128.777 14.8239C129.425 14.1763 130.303 13.8125 131.219 13.8125C132.135 13.8125 133.013 14.1763 133.66 14.8239C134.308 15.4715 134.672 16.3498 134.672 17.2656H138.125C139.041 17.2656 139.919 17.6294 140.567 18.277C141.214 18.9246 141.578 19.8029 141.578 20.7188C141.578 21.6346 141.214 22.5129 140.567 23.1605C139.919 23.8081 139.041 24.1719 138.125 24.1719H131.219C129.316 24.1719 127.766 25.7223 127.766 27.625C127.766 29.5277 129.316 31.0781 131.219 31.0781C136.93 31.0781 141.578 35.726 141.578 41.4375C141.572 43.573 140.905 45.6542 139.668 47.3953C138.431 49.1364 136.686 50.452 134.672 51.1615V51.7969C134.672 52.7127 134.308 53.591 133.66 54.2386C133.013 54.8862 132.135 55.25 131.219 55.25C130.303 55.25 129.425 54.8862 128.777 54.2386C128.129 53.591 127.766 52.7127 127.766 51.7969H124.312C123.397 51.7969 122.518 51.4331 121.871 50.7855C121.223 50.1379 120.859 49.2596 120.859 48.3438C120.859 47.4279 121.223 46.5496 121.871 45.902C122.518 45.2544 123.397 44.8906 124.312 44.8906H131.219C133.121 44.8906 134.672 43.3402 134.672 41.4375C134.672 39.5348 133.121 37.9844 131.219 37.9844ZM61.8386 79.4219C62.0319 78.8797 62.1562 78.3031 62.1562 77.6953C62.1562 74.8396 59.8323 72.5156 56.9766 72.5156H53.5234C46.8589 72.5156 41.4375 67.0942 41.4375 60.4297C41.4375 54.3591 45.9542 49.3659 51.7969 48.5164V44.8906C51.7969 43.9748 52.1607 43.0965 52.8083 42.4489C53.4559 41.8013 54.3342 41.4375 55.25 41.4375C56.1658 41.4375 57.0441 41.8013 57.6917 42.4489C58.3393 43.0965 58.7031 43.9748 58.7031 44.8906V48.3438H65.6094C66.5252 48.3438 67.4035 48.7076 68.0511 49.3551C68.6987 50.0027 69.0625 50.881 69.0625 51.7969C69.0625 52.7127 68.6987 53.591 68.0511 54.2386C67.4035 54.8862 66.5252 55.25 65.6094 55.25H53.5234C50.6677 55.25 48.3438 57.574 48.3438 60.4297C48.3438 63.2854 50.6677 65.6094 53.5234 65.6094H56.9766C63.6411 65.6094 69.0625 71.0308 69.0625 77.6953C69.0625 78.2858 68.9693 78.8521 68.8898 79.4219H95.3235C96.1833 76.1069 96.6875 72.6434 96.6875 69.0625C96.6875 46.2132 78.0993 27.625 55.25 27.625C32.4007 27.625 13.8125 46.2132 13.8125 69.0625C13.8125 72.6434 14.3167 76.1069 15.1765 79.4219H61.8386ZM10.3594 119.616C10.3594 125.728 12.673 131.599 16.8513 136.088L57.7708 179.942C58.3578 180.564 58.7031 181.393 58.7031 182.29V203.734C58.7031 205.219 59.67 206.531 61.0513 207.015L102.489 220.827C102.869 220.931 103.214 221 103.594 221C104.319 221 105.01 220.793 105.597 220.344C106.529 219.688 107.047 218.652 107.047 217.547V182.29C107.047 181.393 107.392 180.564 107.979 179.942L148.899 136.088C153.077 131.599 155.391 125.728 155.391 119.616V113.953H10.3594V119.616Z"
    fill="white" />
  <path
    d="M162.297 86.3281H3.45312C1.54602 86.3281 0 87.8741 0 89.7812V103.594C0 105.501 1.54602 107.047 3.45312 107.047H162.297C164.204 107.047 165.75 105.501 165.75 103.594V89.7812C165.75 87.8741 164.204 86.3281 162.297 86.3281Z"
    fill="white" />
  <path
    d="M20.7188 24.1719C21.6346 24.1719 22.5129 23.8081 23.1605 23.1605C23.8081 22.5129 24.1719 21.6346 24.1719 20.7188V13.8125C24.1719 12.8967 23.8081 12.0184 23.1605 11.3708C22.5129 10.7232 21.6346 10.3594 20.7188 10.3594C19.8029 10.3594 18.9246 10.7232 18.277 11.3708C17.6294 12.0184 17.2656 12.8967 17.2656 13.8125V20.7188C17.2656 21.6346 17.6294 22.5129 18.277 23.1605C18.9246 23.8081 19.8029 24.1719 20.7188 24.1719ZM34.5312 13.8125C35.4471 13.8125 36.3254 13.4487 36.973 12.8011C37.6206 12.1535 37.9844 11.2752 37.9844 10.3594V3.45312C37.9844 2.5373 37.6206 1.65898 36.973 1.0114C36.3254 0.36381 35.4471 0 34.5312 0C33.6154 0 32.7371 0.36381 32.0895 1.0114C31.4419 1.65898 31.0781 2.5373 31.0781 3.45312V10.3594C31.0781 11.2752 31.4419 12.1535 32.0895 12.8011C32.7371 13.4487 33.6154 13.8125 34.5312 13.8125ZM69.0625 20.7188C69.9783 20.7188 70.8566 20.3549 71.5042 19.7074C72.1518 19.0598 72.5156 18.1815 72.5156 17.2656V10.3594C72.5156 9.44355 72.1518 8.56523 71.5042 7.91765C70.8566 7.27006 69.9783 6.90625 69.0625 6.90625C68.1467 6.90625 67.2684 7.27006 66.6208 7.91765C65.9732 8.56523 65.6094 9.44355 65.6094 10.3594V17.2656C65.6094 18.1815 65.9732 19.0598 66.6208 19.7074C67.2684 20.3549 68.1467 20.7188 69.0625 20.7188ZM89.7812 17.2656C90.6971 17.2656 91.5754 16.9018 92.223 16.2542C92.8706 15.6066 93.2344 14.7283 93.2344 13.8125V6.90625C93.2344 5.99042 92.8706 5.11211 92.223 4.46452C91.5754 3.81694 90.6971 3.45313 89.7812 3.45312C88.8654 3.45313 87.9871 3.81694 87.3395 4.46452C86.6919 5.11211 86.3281 5.99042 86.3281 6.90625V13.8125C86.3281 14.7283 86.6919 15.6066 87.3395 16.2542C87.9871 16.9018 88.8654 17.2656 89.7812 17.2656Z"
    fill="white" />
</svg>