<svg width="17" height="20" viewBox="0 0 17 20" fill="none" xmlns="http://www.w3.org/2000/svg">
  <path
    d="M8.05469 20C5.73802 19.4167 3.82552 18.0875 2.31719 16.0125C0.808854 13.9375 0.0546875 11.6333 0.0546875 9.1V3L8.05469 0L16.0547 3V9.1C16.0547 11.6333 15.3005 13.9375 13.7922 16.0125C12.2839 18.0875 10.3714 19.4167 8.05469 20ZM8.05469 17.9C9.67135 17.4 11.0214 16.4125 12.1047 14.9375C13.188 13.4625 13.8214 11.8167 14.0047 10H8.05469V2.125L2.05469 4.375V9.55C2.05469 9.66667 2.07135 9.81667 2.10469 10H8.05469V17.9Z"
    fill="#4F1AD6" />
</svg>