<svg width="176" height="195" viewBox="0 0 176 195" fill="none" xmlns="http://www.w3.org/2000/svg">
  <path
    d="M139.332 115.02C119.493 115.02 103.349 132.961 103.349 155.01C103.349 177.058 119.493 195 139.332 195C159.171 195 176.001 177.058 176.001 155.01C176.001 132.961 159.171 115.02 139.332 115.02ZM149.613 160.723H139.332C136.491 160.723 134.192 158.167 134.192 155.01V143.584C134.192 140.426 136.491 137.871 139.332 137.871C142.173 137.871 144.472 140.426 144.472 143.584V149.297H149.613C152.454 149.297 154.753 151.852 154.753 155.01C154.753 158.167 152.454 160.723 149.613 160.723ZM21.101 143.584H10.82C5.14185 143.584 0.539062 148.699 0.539062 155.01C0.539062 161.319 5.14185 166.436 10.82 166.436H21.101C26.7792 166.436 31.3819 161.319 31.3819 155.01C31.3819 148.699 26.7792 143.584 21.101 143.584ZM21.101 86.4551H10.82C5.14185 86.4551 0.539062 91.5704 0.539062 97.8809C0.539062 104.191 5.14185 109.307 10.82 109.307H21.101C26.7792 109.307 31.3819 104.191 31.3819 97.8809C31.3819 91.5704 26.7792 86.4551 21.101 86.4551ZM21.101 28.5645H10.82C5.14185 28.5645 0.539062 33.6798 0.539062 39.9902C0.539062 46.2999 5.14185 51.416 10.82 51.416H21.101C26.7792 51.416 31.3819 46.2999 31.3819 39.9902C31.3819 33.6798 26.7792 28.5645 21.101 28.5645Z"
    fill="#14161B" />
  <path
    d="M149.614 0H36.523C28.0193 0 21.1016 7.68803 21.1016 17.1387C32.4418 17.1387 41.6635 27.3872 41.6635 39.9902C41.6635 52.5933 32.4418 62.8418 21.1016 62.8418V75.0293C32.4418 75.0293 41.6635 85.2778 41.6635 97.8809C41.6635 110.484 32.4418 120.732 21.1016 120.732V132.158C32.4418 132.158 41.6635 142.407 41.6635 155.01C41.6635 167.613 32.4418 177.861 21.1016 177.861C21.1016 187.312 28.0193 195 36.523 195H110.612C100.007 185.57 93.0683 171.245 93.0683 155.01C93.0683 126.657 113.821 103.594 139.333 103.594C148.84 103.594 158.362 106.811 165.72 112.298V17.1387C165.72 7.68803 158.117 0 149.614 0ZM91.5625 124.771L71.0002 147.623C69.9961 148.739 68.6808 149.297 67.3659 149.297C66.0509 149.297 64.7353 148.739 63.7316 147.623L52.0048 134.59C49.9969 132.359 49.9969 128.743 52.0048 126.512C54.0126 124.281 57.2659 124.281 59.2737 126.512L67.3659 135.506L84.2935 116.693C86.3013 114.462 89.5546 114.462 91.5625 116.693C93.5703 118.924 93.5703 122.54 91.5625 124.771ZM91.5625 79.0683L71.0005 101.92C69.9964 103.036 68.6812 103.594 67.3662 103.594C66.0513 103.594 64.7357 103.036 63.7319 101.92L52.0051 88.8872C49.9965 86.6558 49.9965 83.0407 52.0048 80.8092C54.0126 78.5778 57.2659 78.5778 59.2737 80.8092L67.3659 89.8025L84.2935 70.9899C86.3013 68.7584 89.5546 68.7584 91.5625 70.9899C93.5703 73.2214 93.5703 76.8369 91.5625 79.0683ZM91.5625 32.6035L71.0005 55.455C69.9964 56.5709 68.6812 57.1289 67.3662 57.1289C66.0513 57.1289 64.7357 56.5709 63.7319 55.455L52.0051 42.4224C49.9965 40.1909 49.9965 36.5758 52.0048 34.3444C54.0126 32.1129 57.2659 32.1129 59.2737 34.3444L67.3659 43.3376L84.2935 24.5251C86.3013 22.2936 89.5546 22.2936 91.5625 24.5251C93.5703 26.7565 93.5703 30.372 91.5625 32.6035ZM139.333 92.168H108.49C105.648 92.168 103.349 89.6128 103.349 86.4551C103.349 83.2974 105.648 80.7422 108.49 80.7422H139.333C142.174 80.7422 144.473 83.2974 144.473 86.4551C144.473 89.6128 142.174 92.168 139.333 92.168ZM139.333 45.7031H108.49C105.648 45.7031 103.349 43.1479 103.349 39.9902C103.349 36.8325 105.648 34.2773 108.49 34.2773H139.333C142.174 34.2773 144.473 36.8325 144.473 39.9902C144.473 43.1479 142.174 45.7031 139.333 45.7031Z"
    fill="#14161B" />
</svg>