<svg width="28" height="20" viewBox="0 0 28 20" fill="none" xmlns="http://www.w3.org/2000/svg">
<path d="M17.5547 20C14.763 20 12.3984 19.0312 10.4609 17.0938C8.52344 15.1562 7.55469 12.7917 7.55469 10C7.55469 7.22917 8.52344 4.86979 10.4609 2.92188C12.3984 0.973958 14.763 0 17.5547 0C20.3255 0 22.6849 0.973958 24.6328 2.92188C26.5807 4.86979 27.5547 7.22917 27.5547 10C27.5547 12.7917 26.5807 15.1562 24.6328 17.0938C22.6849 19.0312 20.3255 20 17.5547 20ZM17.5547 17.5C19.638 17.5 21.4089 16.7708 22.8672 15.3125C24.3255 13.8542 25.0547 12.0833 25.0547 10C25.0547 7.91667 24.3255 6.14583 22.8672 4.6875C21.4089 3.22917 19.638 2.5 17.5547 2.5C15.4714 2.5 13.7005 3.22917 12.2422 4.6875C10.7839 6.14583 10.0547 7.91667 10.0547 10C10.0547 12.0833 10.7839 13.8542 12.2422 15.3125C13.7005 16.7708 15.4714 17.5 17.5547 17.5ZM20.3984 14.6562L22.1797 12.875L18.8047 9.5V5H16.3047V10.5312L20.3984 14.6562ZM1.30469 6.25V3.75H6.30469V6.25H1.30469ZM0.0546875 11.25V8.75H6.30469V11.25H0.0546875ZM1.30469 16.25V13.75H6.30469V16.25H1.30469Z" fill="#4F1AD6"/>
</svg>
