<svg width="16" height="17" viewBox="0 0 16 17" fill="none" xmlns="http://www.w3.org/2000/svg">
  <path
    d="M8 0.5C6.41775 0.5 4.87103 0.969192 3.55544 1.84824C2.23985 2.72729 1.21447 3.97672 0.608967 5.43853C0.00346627 6.90034 -0.15496 8.50887 0.153721 10.0607C0.462403 11.6126 1.22433 13.038 2.34315 14.1569C3.46197 15.2757 4.88743 16.0376 6.43928 16.3463C7.99113 16.655 9.59966 16.4965 11.0615 15.891C12.5233 15.2855 13.7727 14.2602 14.6518 12.9446C15.5308 11.629 16 10.0822 16 8.5C16 7.44942 15.7931 6.40914 15.391 5.43853C14.989 4.46793 14.3997 3.58601 13.6569 2.84315C12.914 2.10028 12.0321 1.511 11.0615 1.10896C10.0909 0.706926 9.05058 0.5 8 0.5ZM10.04 11.564C9.91117 11.6542 9.75728 11.7018 9.6 11.7C9.46824 11.6993 9.33868 11.6661 9.22284 11.6033C9.107 11.5405 9.00847 11.45 8.936 11.34L7.336 8.94C7.24852 8.80983 7.20123 8.65683 7.2 8.5V4.5C7.2 4.28783 7.28429 4.08434 7.43432 3.93431C7.58435 3.78429 7.78783 3.7 8 3.7C8.21218 3.7 8.41566 3.78429 8.56569 3.93431C8.71572 4.08434 8.8 4.28783 8.8 4.5V8.26L10.264 10.46C10.3798 10.6364 10.4212 10.8513 10.3793 11.0581C10.3373 11.2649 10.2154 11.4467 10.04 11.564Z"
    fill="white" />
</svg>