<svg width="38" height="38" viewBox="0 0 38 38" fill="none" xmlns="http://www.w3.org/2000/svg">
  <path
    d="M27.9632 18.8417C27.9474 17.9867 27.8128 17.1633 27.5753 16.3796L37.1149 13.2842L37.0199 12.9833L27.4803 16.0788C27.2032 15.2792 26.8232 14.535 26.3482 13.8621L34.9103 8.5102L34.2728 7.71083L26.1582 13.6087C25.6516 12.9437 25.0578 12.35 24.3928 11.8433L30.2907 3.72083L30.0374 3.53083L24.1395 11.6533C23.4587 11.1783 22.7145 10.7904 21.9228 10.5212L25.494 1.16689L24.7174 0.886667L21.622 10.4262C20.8382 10.1887 20.0149 10.0542 19.1599 10.0383V0H18.8432V10.0304C17.9882 10.0462 17.1649 10.1808 16.3812 10.4183L13.7376 0.759416L12.9691 0.97375L16.0645 10.5133C15.2649 10.7904 14.5207 11.1704 13.8478 11.6454L7.9499 3.53875L7.69657 3.72875L13.5945 11.8433C12.9295 12.35 12.3357 12.9437 11.8291 13.6087L3.55831 8.01889L3.12256 8.623L11.647 13.8542C11.172 14.535 10.7841 15.2792 10.5149 16.0708L0.975319 12.9754L0.880319 13.2762L10.4199 16.3717C10.1824 17.1554 10.0478 17.9787 10.032 18.8337H-0.00634766V19.5564L10.0241 19.1504C10.0399 20.0054 10.1745 20.8287 10.412 21.6125L0.872402 24.7237L0.967402 25.0246L10.507 21.9292C10.7841 22.7288 11.1641 23.4729 11.6391 24.1458L3.31309 30.02L3.85297 30.7671L11.837 24.3992C12.3437 25.0642 12.9374 25.6579 13.6024 26.1646L7.69657 34.2792L7.9499 34.4692L13.8478 26.3467C14.5287 26.8217 15.2728 27.2096 16.0645 27.4788L12.9691 37.0183L13.2699 37.1133L16.3653 27.5737C17.1491 27.8112 17.9724 27.9458 18.8274 27.9617L18.5411 38H19.574L19.1441 27.9696C19.9991 27.9537 20.8224 27.8192 21.6062 27.5817L24.7016 37.1213L25.0024 37.0262L21.907 27.4867C22.7066 27.2096 23.4507 26.8296 24.1237 26.3546L30.0216 34.4692L30.2749 34.2792L24.377 26.1646C25.042 25.6579 25.6357 25.0642 26.1424 24.3992L34.2728 30.2971L34.4628 30.0437L26.3403 24.1458C26.8153 23.465 27.2032 22.7208 27.4724 21.9292L36.8813 25.8872L37.339 24.8349L27.5674 21.6283C27.8049 20.8446 27.9395 20.0213 27.9553 19.1663H37.9937V18.8417H27.9632Z"
    fill="#B2A6F1" />
</svg>